<svg width="24" height="24" viewBox="0 0 24 24" fill="none" xmlns="http://www.w3.org/2000/svg">
<g clip-path="url(#clip0_2431_67)">
<path d="M14.8373 19.0013C14.6879 19.0018 14.5403 18.9688 14.4053 18.9048C14.2703 18.8407 14.1514 18.7473 14.0573 18.6313L9.2273 12.6313C9.08022 12.4523 8.99982 12.2279 8.99982 11.9963C8.99982 11.7646 9.08022 11.5402 9.2273 11.3613L14.2273 5.36125C14.397 5.15704 14.641 5.02861 14.9054 5.00423C15.1698 4.97985 15.4331 5.06151 15.6373 5.23125C15.8415 5.40099 15.9699 5.6449 15.9943 5.90933C16.0187 6.17375 15.937 6.43704 15.7673 6.64125L11.2973 12.0013L15.6173 17.3613C15.7396 17.508 15.8173 17.6868 15.8411 17.8763C15.865 18.0659 15.8341 18.2583 15.7521 18.4308C15.67 18.6034 15.5402 18.7488 15.3781 18.8499C15.216 18.9509 15.0283 19.0035 14.8373 19.0013Z" fill="currentColor"/>
</g>
<defs>
<clipPath id="clip0_2431_67">
<rect width="24" height="24" fill="none"/>
</clipPath>
</defs>
</svg>
