<svg width="176" height="40" viewBox="0 0 176 40" fill="none" xmlns="http://www.w3.org/2000/svg">
<path fill-rule="evenodd" clip-rule="evenodd" d="M79.5033 0.384778C76.0736 1.41388 70.7066 4.2747 68.1444 6.43932C67.6219 6.88068 67.3996 7.19775 67.3234 7.60932C67.266 7.91981 67.2439 8.19926 67.2745 8.23014C67.3049 8.26101 67.8481 7.85414 68.4816 7.32579C69.9892 6.06865 72.5114 4.40244 74.3455 3.45217C75.8026 2.69735 78.9769 1.36122 79.7912 1.15997C80.3043 1.03318 80.3157 1.13302 79.912 2.2107C79.5328 3.22366 79.733 3.03135 80.3457 1.79427C80.8608 0.754195 81.0933 -0.0126928 80.8894 0.000159159C80.8164 0.00470437 80.1928 0.177893 79.5033 0.384778ZM32.2061 1.10527C31.9721 1.7416 31.9333 2.04378 32.0473 2.3411C32.1303 2.55755 32.7496 6.22585 33.4235 10.4929C34.6166 18.0475 35.051 21.944 34.8457 23.2482C34.7708 23.7246 34.7961 23.8411 34.9627 23.7848C35.3075 23.6682 35.5789 22.4466 35.6699 20.6021C35.7475 19.0288 35.6658 18.2749 34.7365 11.9818C34.1763 8.18892 33.6769 4.83878 33.6266 4.53707L33.5353 3.98851L34.0884 4.52861C34.9458 5.36602 34.8082 4.77922 33.5786 2.35693L32.5159 0.262998L32.2061 1.10527ZM60.232 1.16091C59.9904 1.93846 59.987 2.09911 60.1948 2.92414C60.4795 4.05434 62.5495 17.948 62.6909 19.6772L62.7945 20.9467L62.2745 21.3229C61.5365 21.8569 60.1191 21.8573 59.3816 21.3237C58.9321 20.9984 57.9737 19.8027 57.4059 18.8592C57.2416 18.586 57.2154 18.5987 57.0475 19.0347C56.4411 20.6083 56.4489 20.7089 57.3103 22.4452C57.7481 23.3279 58.2272 24.4345 58.3747 24.9043L58.6432 25.7584L57.4952 26.8395C53.5639 30.5418 50.8382 31.9615 48.5759 31.485C45.9721 30.9366 45.4828 28.1338 47.0298 22.6288C47.3166 21.608 47.3957 21.4874 48.039 21.0933C48.4228 20.858 48.7577 20.6865 48.7831 20.7122C48.8084 20.7379 48.7639 21.1116 48.6842 21.5426C48.6045 21.9735 48.5805 22.5181 48.631 22.7529C48.8152 23.609 50.2105 24.3652 51.4029 24.2548L51.9223 24.2069L51.4235 22.2477C51.1491 21.1702 50.8376 20.1276 50.7312 19.9309C50.5478 19.5916 50.5799 19.5545 51.357 19.2059C52.1588 18.8462 57.7804 16.5744 58.32 16.3919C58.6517 16.2797 60.1724 13.9175 60.0134 13.7612C59.828 13.5791 54.9234 12.4113 53.2335 12.147C52.3706 12.0121 50.6791 11.8345 49.4747 11.7522C45.8921 11.5079 44.8244 11.8991 44.3736 13.6209C43.9281 15.3227 44.7064 16.7634 47.0223 18.5236L47.7392 19.0684L46.1726 20.1888C44.1119 21.6623 43.3132 22.3607 39.4267 26.0877C34.7195 30.6015 33.4459 31.5042 31.6163 31.6236C30.14 31.7198 29.126 31.0713 28.4749 29.6141C28.0998 28.7745 28.0814 28.1799 28.3859 26.7218C28.7701 24.8815 29.3196 23.627 29.9116 23.2386C30.8168 22.6447 31.3977 20.9464 31.3967 18.8959C31.3966 18.3688 30.9447 14.8777 30.3925 11.1378C29.8406 7.39805 29.3888 4.26326 29.3888 4.17173C29.3888 4.0802 29.6321 4.24461 29.9295 4.53707C30.469 5.06761 30.4703 5.06792 30.4703 4.6775C30.4703 4.28834 28.5268 0.462047 28.329 0.462047C28.272 0.462047 28.1021 0.814223 27.9514 1.24461C27.7569 1.80038 27.7214 2.11055 27.8291 2.31461C27.9124 2.4726 28.5161 5.94671 29.1707 10.0347C30.1186 15.955 30.3641 17.8303 30.3769 19.2509C30.3927 20.9948 30.3842 21.0412 29.9933 21.3392C29.5449 21.6812 28.5271 21.8675 27.9334 21.7163C27.3468 21.5669 26.5695 20.8046 25.8305 19.6537C25.4679 19.0891 25.1221 18.6837 25.0622 18.7526C25.0022 18.8216 24.7914 19.2836 24.5935 19.7792L24.2338 20.6804L25.0543 22.3653C25.9335 24.1708 26.299 25.102 26.299 25.5369C26.299 25.8355 23.4536 28.4719 21.8509 29.6582C20.5345 30.6326 19.1886 31.2733 18.0338 31.4753C15.8757 31.853 14.5139 30.9514 14.0832 28.8599C13.92 28.0678 13.9451 27.7238 14.3083 25.7742C14.9659 22.2437 14.9678 20.446 14.3157 18.2119C14.2176 17.8759 14.2534 17.8593 15.0725 17.8593C16.2684 17.8593 17.9399 17.2861 20.7981 15.8959C22.1372 15.2443 23.8307 14.5077 24.5612 14.2587L25.8895 13.8059L26.566 12.6802C26.9381 12.0611 27.2215 11.5342 27.1957 11.5091C27.1699 11.4842 26.5121 11.3856 25.7337 11.2903C24.2034 11.1027 22.4868 10.6772 19.5787 9.7647C18.0428 9.28275 17.4844 9.18103 16.323 9.17178C15.0226 9.16144 14.8663 9.19498 14.1641 9.63492C13.6948 9.92911 13.2296 10.4007 12.9396 10.8761C12.531 11.5463 12.4722 11.7868 12.4722 12.7873V13.9317L11.4641 12.9177C10.4058 11.853 10.1772 11.7621 9.47906 12.1284C8.41509 12.6865 5.79787 16.1445 4.64151 18.5199C4.26903 19.2849 3.88188 19.7844 3.2236 20.3491C2.72568 20.7762 2.01379 21.537 1.64193 22.0394C-0.136254 24.4417 0.0196261 26.7597 2.30206 31.8599C4.39695 36.5407 4.68569 37.2271 5.07145 38.4387C5.64616 40.2441 5.65589 40.2617 5.71645 39.6025C5.86044 38.038 4.77267 34.5849 2.49579 29.379C0.945022 25.833 0.800265 25.1908 1.32275 24.1751C1.65969 23.5201 2.59405 22.6046 3.2993 22.2386L3.85932 21.9479L3.93812 22.6581C4.05228 23.6856 4.66314 24.3559 6.29872 25.2491C8.11738 26.242 8.22367 26.2377 8.22367 25.1686C8.22367 23.0671 7.51981 21.2186 6.28281 20.0718L5.47143 19.3194L6.22627 17.8693C7.09837 16.1945 8.25998 14.4864 8.68328 14.2565C9.25335 13.9469 9.52927 14.1153 11.0695 15.7119C12.1758 16.8587 12.8378 17.4146 13.356 17.6318C14.034 17.9161 14.0965 17.9904 14.2443 18.6898C14.5273 20.0289 14.432 22.3294 14.009 24.3636C13.2108 28.2024 13.1558 28.6383 13.33 29.7448C13.6237 31.6093 14.5238 33.0003 15.7422 33.4724C17.28 34.0681 19.4417 33.4716 21.9271 31.7654C23.4746 30.7031 26.3617 28.1966 26.6445 27.67C26.7415 27.4893 26.8505 26.5265 26.8869 25.5305L26.953 23.7193L27.9005 23.7861C28.4217 23.8226 28.8615 23.8636 28.8779 23.8771C28.8943 23.8906 28.6709 24.605 28.3817 25.4648C27.1597 29.0971 27.3483 31.4065 29.0071 33.1202C30.5197 34.683 32.3935 34.5084 35.3114 32.5328C36.0381 32.0406 37.8677 30.4276 39.6287 28.7264C44.5299 23.992 46.7305 21.9214 46.7937 21.9854C46.826 22.0183 46.6466 22.8554 46.395 23.8456C45.492 27.3984 45.4034 29.8071 46.1178 31.3836C47.117 33.5888 48.483 34.2071 51.0168 33.6012C53.0166 33.1232 55.1224 31.6983 57.5246 29.1978C59.0349 27.6257 59.2054 27.1931 59.2054 24.9336V23.7166L60.0987 23.7823C61.7005 23.8998 62.6017 23.2141 63.2304 21.3998C63.8406 19.6383 63.7977 18.8443 62.6931 11.4587C62.1344 7.72295 61.6791 4.51387 61.6814 4.32736C61.6852 4.02612 61.7361 4.04948 62.1407 4.53707L62.5959 5.08563L62.6 4.64647C62.6033 4.30667 60.6984 0.305316 60.5336 0.305316C60.5138 0.305316 60.3782 0.690248 60.232 1.16091ZM64.4272 1.20652C64.1962 1.87326 64.1924 2.04033 64.3903 2.8055C64.5119 3.27538 65.1392 7.18975 65.7844 11.5041C66.6468 17.2707 66.9798 19.9397 67.0423 21.5816C67.0889 22.8101 67.1842 23.8151 67.2542 23.8151C67.5206 23.8151 67.8709 22.101 67.9429 20.4453C68.0123 18.8532 67.9309 18.1754 66.8805 11.59C66.255 7.66778 65.7784 4.35965 65.8215 4.23849C65.8785 4.07879 66.0197 4.15417 66.3356 4.51278C67.2709 5.57479 67.1357 4.92529 65.9143 2.48843C65.3557 1.37391 64.8507 0.462047 64.792 0.462047C64.7331 0.462047 64.569 0.797139 64.4272 1.20652ZM82.3481 1.20652C82.1171 1.87326 82.1132 2.04033 82.3111 2.8055C82.4327 3.27538 83.0601 7.18975 83.7053 11.5041C84.5676 17.2707 84.9007 19.9397 84.9631 21.5816C85.0683 24.3526 85.2573 24.5453 85.6163 22.2477C85.973 19.9646 85.8259 18.1481 84.7155 11.1198C84.1366 7.45619 83.6986 4.35965 83.7419 4.23849C83.7992 4.07863 83.9404 4.15386 84.2565 4.51278C85.1918 5.57479 85.0566 4.92529 83.8352 2.48843C83.2765 1.37391 82.7715 0.462047 82.7128 0.462047C82.6539 0.462047 82.4899 0.797139 82.3481 1.20652ZM57.6605 1.54945C54.2253 2.66225 49.596 5.23437 47.4302 7.23364C46.8853 7.73675 46.6752 8.06008 46.5986 8.51319L46.496 9.11959L47.6366 8.14378C49.3215 6.70263 51.7777 5.09738 53.8755 4.06656C55.9645 3.03981 57.9695 2.27339 57.9695 2.50128C57.9695 2.58466 57.8322 3.01975 57.6642 3.46816C57.4963 3.91641 57.3858 4.31059 57.4189 4.34413C57.6009 4.52876 58.742 1.97028 58.742 1.37752C58.742 1.20903 58.6822 1.21859 57.6605 1.54945ZM44.0251 1.809C43.7821 2.05554 43.9072 3.23118 44.2057 3.50515C44.3677 3.65404 44.6572 4.14101 44.8491 4.58738C45.1351 5.25286 45.1977 5.68137 45.1964 6.96641L45.1949 8.53372L45.4121 7.82843C45.7399 6.76407 45.7388 4.78392 45.4099 3.70388C45.134 2.79813 44.2468 1.58409 44.0251 1.809ZM25.3894 3.24403C25.2666 3.54684 25.261 3.83789 25.3705 4.22251C25.6027 5.03767 25.5646 5.62918 25.2724 5.74296C24.9125 5.88308 24.6573 5.45646 24.533 4.50713C24.475 4.0628 24.3532 3.55844 24.2625 3.3865C24.0999 3.07821 24.0951 3.07868 23.9163 3.41738C23.7852 3.66595 23.7768 4.01672 23.886 4.6869C24.0513 5.70033 23.8959 6.10439 23.341 6.10439C22.9291 6.10439 22.7053 5.41147 22.7862 4.38676L22.8537 3.53101L22.2591 4.21091C21.9319 4.58487 21.6643 5.03375 21.6643 5.20851C21.6643 5.51617 21.674 5.51711 21.9733 5.24236C22.2793 4.9615 22.2823 4.96855 22.2823 5.97743C22.2823 6.76532 22.3462 7.05496 22.5648 7.25558C22.9897 7.64568 23.4453 7.56967 23.8891 7.03474C24.2661 6.58022 24.3058 6.56768 24.6324 6.79965C25.0962 7.1291 25.464 7.10825 25.8356 6.73131C26.0804 6.48289 26.1445 6.20893 26.1445 5.411C26.1445 4.36435 25.8632 2.81302 25.6733 2.81302C25.6132 2.81302 25.4855 3.00706 25.3894 3.24403ZM40.2487 2.93794C39.9541 3.1279 39.3207 4.68299 39.1186 5.71256C38.8348 7.15935 38.826 7.16671 38.4267 6.29246C37.9375 5.2212 37.4064 4.6938 36.8169 4.6938C36.2445 4.6938 36.0319 5.0466 36.0319 5.99655C36.0319 6.71423 36.1723 6.93005 36.7579 7.11201C36.9942 7.18536 37.1935 7.12016 37.4132 6.89729L37.7288 6.57709L38.3219 7.77295L38.9148 8.96866L39.0998 7.81072C39.3303 6.36769 39.6842 5.2491 39.9924 4.98955C40.1827 4.82937 40.2889 4.82953 40.5429 4.99034C40.9645 5.25741 41.1461 5.04739 41.2424 4.18176C41.361 3.11332 40.8905 2.52401 40.2487 2.93794ZM91.7604 4.96839C91.4194 5.35051 91.1962 5.95894 90.7993 7.58832L90.4568 8.99405L90.1174 8.21525C89.4592 6.70545 88.431 6.11348 87.8722 6.92299C87.5757 7.35228 87.5593 8.29518 87.8414 8.6867C88.1178 9.07006 88.9588 9.0732 89.2337 8.69187C89.4208 8.43216 89.4914 8.51053 90.0017 9.54527C90.6125 10.7841 90.6136 10.7836 90.8623 9.12492C91.0462 7.89943 91.4155 6.95215 91.7622 6.8172C91.8818 6.77049 92.1227 6.80999 92.2972 6.90481C92.7276 7.1385 92.8789 6.86845 92.882 5.86145C92.8852 4.75587 92.3383 4.32047 91.7604 4.96839ZM6.4889 5.73199C6.01153 6.82002 5.72356 8.27308 5.8541 8.9348C6.04103 9.88287 7.24575 10.1965 7.9167 9.47192C8.19308 9.17335 8.29783 8.84938 8.34881 8.13375C8.41555 7.19822 8.41045 7.18411 7.7792 6.57489C7.42882 6.23682 7.1373 5.83402 7.13143 5.67964C7.1254 5.52542 7.06932 5.26681 7.00675 5.10506C6.9153 4.86918 6.81302 4.993 6.4889 5.73199ZM55.8105 5.93825C55.6602 6.30641 55.6551 6.57724 55.7881 7.11358C56.0595 8.2071 56.0206 8.45536 55.5779 8.45536C55.1688 8.45536 55.1901 8.5041 54.8724 6.83695C54.7031 5.94859 54.6903 5.9312 54.4006 6.19701C54.2369 6.34748 54.1346 6.5821 54.1735 6.71846C54.4261 7.60509 54.4318 8.41712 54.1873 8.66522C53.8927 8.96411 53.8088 8.97696 53.4893 8.77227C53.3353 8.67369 53.2316 8.26728 53.1803 7.56011L53.1031 6.49621L52.6961 7.04478C52.252 7.64349 51.8854 8.62541 52.301 8.10271C52.6538 7.65916 52.7168 7.7717 52.7168 8.84358C52.7168 9.73727 52.7604 9.88773 53.0813 10.101C53.52 10.3927 53.9114 10.2821 54.3696 9.73664C54.6918 9.35327 54.7241 9.34622 54.9997 9.59919C55.4102 9.97597 56.049 9.9371 56.3386 9.51753C56.6247 9.10313 56.6563 7.74897 56.4081 6.54308C56.1896 5.48153 56.0532 5.34361 55.8105 5.93825ZM77.3824 5.58325C77.3265 5.63999 77.2808 5.99624 77.2808 6.37475C77.2808 6.89588 77.3892 7.2037 77.7274 7.64177C78.3773 8.48373 78.5777 9.27961 78.5634 10.9631C78.5493 12.636 78.7199 12.4812 79.0006 10.5664C79.2014 9.19639 79.0148 8.10585 78.3478 6.75153C77.8731 5.78779 77.5575 5.40583 77.3824 5.58325ZM168.167 6.6995C167.872 6.88945 167.239 8.44454 167.036 9.47411C166.753 10.9209 166.744 10.9283 166.345 10.054C165.855 8.98276 165.324 8.45536 164.735 8.45536C164.162 8.45536 163.95 8.80816 163.95 9.75811C163.95 10.4758 164.09 10.6916 164.676 10.8736C164.912 10.9469 165.111 10.8817 165.331 10.6588L165.647 10.3386L166.246 11.5474C166.919 12.9034 166.864 12.9431 167.178 10.8712C167.354 9.71156 167.713 8.7975 168.043 8.6693C168.177 8.61695 168.423 8.69876 168.589 8.85111C168.881 9.11959 168.897 9.11065 169.124 8.56162C169.402 7.8858 169.409 7.71418 169.187 7.06813C169.017 6.57223 168.598 6.42098 168.167 6.6995ZM7.66365 7.90554C8.06826 8.21462 7.87653 8.57573 7.2439 8.6961C6.2808 8.87947 5.74457 8.28593 6.30521 7.65744C6.56862 7.36216 7.07272 7.45431 7.66365 7.90554ZM75.1942 8.36038C75.1235 8.72321 75.148 9.29152 75.255 9.7614C75.3989 10.394 75.3945 10.5929 75.2329 10.757C74.8595 11.1356 74.3904 10.6104 74.2634 9.6716C74.2021 9.21817 74.1055 8.71977 74.0488 8.56397C73.95 8.29205 73.9354 8.29236 73.6866 8.57134C73.4775 8.80565 73.4505 9.01254 73.5469 9.63837C73.6948 10.5966 73.5702 11.1794 73.2022 11.2513C72.7567 11.3383 72.6007 11.045 72.5044 9.94039L72.4143 8.90753L71.9122 9.57192C71.636 9.93741 71.4123 10.347 71.4151 10.4822C71.4193 10.6902 71.452 10.6852 71.628 10.4499C71.8112 10.205 71.844 10.2836 71.9028 11.1101C72.012 12.6415 72.7361 13.1258 73.5673 12.2232C73.952 11.8053 74.0232 11.7815 74.2858 11.9831C74.6713 12.2791 75.3466 12.276 75.6415 11.9768C76.1505 11.4604 76.0994 9.6448 75.5378 8.29126L75.3132 7.75007L75.1942 8.36038ZM39.9989 11.3695C39.3343 11.4913 38.6616 11.661 38.5041 11.7466C38.2521 11.8834 37.4852 13.5869 37.6159 13.7193C37.6434 13.7472 37.9412 13.6706 38.2779 13.549C38.9518 13.3054 39.5855 13.2485 39.5846 13.4316C39.583 13.7527 38.9101 14.6002 38.2878 15.0649C37.3038 15.7995 37.4092 15.9308 38.5065 15.3374C39.6148 14.7381 40.4194 13.8795 40.899 12.7843C41.3053 11.8569 41.4976 11.1135 41.3261 11.1339C41.2608 11.1416 40.6635 11.2477 39.9989 11.3695ZM17.9705 11.7423C21.9376 12.8134 22.654 13.0119 22.6921 13.0506C22.7155 13.0744 21.5611 13.6045 20.1267 14.2284C17.4393 15.3975 15.6414 15.9087 14.7317 15.7623C13.7614 15.6061 13.1674 14.7436 13.1674 13.4905C13.1674 12.5686 13.6671 11.8365 14.4547 11.6052C15.2862 11.361 16.7727 11.419 17.9705 11.7423ZM90.3624 11.9426C89.5441 13.0553 89.4129 13.6242 90.0648 13.2346C90.3764 13.0482 90.5926 13.0194 90.8759 13.1261C91.2453 13.2653 91.2266 13.2871 90.4454 13.6281C89.4137 14.0783 89.0219 14.5696 89.0227 15.4119C89.0231 15.9332 89.4101 18.1926 90.0055 21.1506C90.0488 21.3661 90.0583 20.6961 90.0267 19.6617C89.9941 18.599 89.8606 17.3845 89.7199 16.8698C89.5828 16.3687 89.5138 15.8214 89.5663 15.6534C89.6815 15.2853 90.2539 14.9696 91.5376 14.5662C92.3857 14.2996 92.5467 14.182 92.9149 13.5612L93.3317 12.8581L92.3975 12.1458C91.2757 11.2902 90.8721 11.2499 90.3624 11.9426ZM2.12131 12.5454C1.78143 12.6227 1.34778 12.7225 1.1576 12.7674C0.803046 12.8509 0.323199 13.6438 0.126997 14.4701C0.0338393 14.8627 0.0560858 14.9058 0.298172 14.8036C0.76087 14.6085 1.90611 14.3757 1.98907 14.4599C2.16318 14.6364 1.53981 15.52 0.849238 16.0756C-0.268035 16.9747 -0.273596 17.0029 0.777709 16.4438C1.97068 15.8094 3.15593 14.5372 3.49535 13.5267C3.63176 13.1205 3.74346 12.6948 3.74346 12.5808C3.74346 12.3432 3.07591 12.3287 2.12131 12.5454ZM171.002 12.9174C170.953 13.0473 170.866 13.5107 170.809 13.9475C170.706 14.7336 170.728 14.7865 172.912 19.2004C175.349 24.1243 175.608 24.9376 174.902 25.4393C173.831 26.2 172.357 25.051 172.063 23.2267C172.002 22.8463 171.89 22.6012 171.802 22.6562C171.718 22.7092 171.402 23.1502 171.1 23.6364C170.267 24.9799 169.843 25.3824 169.262 25.3824C168.574 25.3824 168.121 24.7833 168.121 23.8723C168.121 23.496 168.077 23.1881 168.024 23.1881C167.971 23.1881 167.45 23.6441 166.868 24.2014C165.358 25.6466 164.25 26.154 163.322 25.8255C162.709 25.6088 162.199 24.7211 162.199 23.8718C162.199 23.4958 162.153 23.1881 162.097 23.1881C162.042 23.1881 160.889 23.4663 159.535 23.8063C152.686 25.5272 145.148 26.7847 137.223 27.5283C132.957 27.9286 121.105 27.9282 117.062 27.5276C108.42 26.6713 102.074 25.2393 97.9074 23.2054C97.0564 22.7902 96.0302 22.152 95.6266 21.7873L94.8928 21.1241L94.5957 21.8275L94.2985 22.5308L93.5653 22.1542C92.6572 21.6877 92.3456 21.6841 91.479 22.1302C90.4128 22.6791 89.449 23.5779 87.7405 25.6175C84.9301 28.9726 83.784 29.9276 82.5685 29.9276C82.0195 29.9276 81.8024 29.837 81.4185 29.4475C80.957 28.9794 80.9476 28.94 81.0369 27.8601C81.1046 27.0415 81.2286 26.605 81.5133 26.1852C82.0956 25.3263 82.2521 24.7832 82.2639 23.58C82.2759 22.356 82.0179 21.3487 81.1233 19.1242C80.5309 17.6521 80.4597 17.3232 80.831 17.7771C81.0913 18.0953 81.2983 18.0796 81.2944 17.7417C81.2896 17.3223 79.6301 14.7647 79.5416 15.0406C79.1243 16.343 79.116 16.4397 79.3511 17.2651C79.481 17.7212 79.7345 18.6183 79.9145 19.2586C80.0945 19.899 80.5489 21.116 80.9241 21.9631C81.2994 22.8104 81.6065 23.598 81.6065 23.7133C81.6065 24.0213 81.1046 24.4301 80.5163 24.6012C79.3602 24.9376 78.1506 24.1259 77.6072 22.6493C77.4467 22.2129 77.1607 20.7627 76.9718 19.4266C76.6525 17.1684 76.1779 15.3515 75.9075 15.3515C75.8442 15.3515 75.6778 15.7219 75.5377 16.1744C75.2902 16.9742 75.2954 17.0668 75.7269 19.4874C76.1312 21.7553 76.1527 22.0487 75.9672 22.7737C75.7175 23.7506 74.717 24.7866 73.7357 25.0849C72.9186 25.3333 71.983 25.0512 71.5205 24.4171C71.0899 23.827 71.013 22.2263 71.3161 20.1663C71.5988 18.2447 71.6371 16.9189 71.41 16.9189C71.1322 16.9189 70.1027 18.1155 69.7312 18.8702C69.5314 19.2758 69.093 20.6022 68.7566 21.8178C68.1181 24.1257 67.8839 24.721 67.481 25.0603C67.0667 25.409 66.3795 24.9948 65.9732 24.1511C65.6662 23.514 65.6172 23.1414 65.58 21.1627C65.5567 19.9193 65.5089 18.8732 65.474 18.8377C65.3507 18.7127 65.1881 20.5994 65.181 22.2363C65.1672 25.3759 66.2845 27.6235 67.6055 27.1139C68.2012 26.8842 68.6298 25.9736 68.9542 24.2484C69.1206 23.3635 69.3635 22.1835 69.494 21.6258C69.9179 19.8139 70.7109 18.3216 70.5586 19.6225C70.1912 22.7631 70.1308 23.9135 70.2924 24.6949C70.6899 26.6176 71.4766 27.4224 72.9523 27.4164C74.5482 27.41 75.8139 26.4428 76.2004 24.9347C76.303 24.5345 76.4229 24.0705 76.4671 23.9039C76.5278 23.6742 76.6145 23.7807 76.8252 24.3439C77.4595 26.0394 78.392 26.7107 79.9712 26.6088L80.9221 26.5474L80.719 27.5497C80.135 30.4309 81.8966 32.7757 83.9467 31.8457C84.9957 31.3698 86.0002 30.4412 88.1773 27.9351C89.2847 26.6604 90.6269 25.2824 91.1602 24.873C92.0133 24.218 92.2214 24.1285 92.8932 24.1285C93.9631 24.1285 94.1988 24.4124 94.3315 25.8602C94.4493 27.1454 94.8721 28.051 95.6739 28.7356C96.517 29.4554 96.592 29.3483 96.592 27.4258V25.7077L97.7893 26.2259C102.374 28.2106 110.994 29.834 119.997 30.4083C123.249 30.6158 131.692 30.5257 134.906 30.2492C141.697 29.6651 148.555 28.5369 154.603 27.0089C156.098 26.6314 160.82 25.2913 161.261 25.1198C161.426 25.0557 161.478 25.1921 161.478 25.6869C161.478 27.055 162.283 27.8901 163.602 27.8901C164.708 27.8901 165.799 27.3052 166.395 26.3925L166.827 25.7313L167.192 26.4289C168.05 28.0708 169.819 27.9373 170.606 26.171L170.965 25.3648L171.316 26.0654C171.812 27.056 172.48 27.4982 173.481 27.4982C174.185 27.4982 174.35 27.4326 174.828 26.9632C175.713 26.093 176 25.2891 176 23.6845C176 21.6302 175.389 20.0632 173.415 17.0549C172.855 16.2028 172.437 15.4658 172.485 15.4171C172.533 15.3683 172.788 15.4412 173.05 15.5791C173.498 15.8139 173.528 15.8122 173.521 15.5515C173.51 15.1287 171.114 12.6225 171.002 12.9174ZM50.9714 14.1011C52.3408 14.2753 54.2566 14.7359 55.32 15.1465L55.992 15.4061L54.2386 16.0866C53.2741 16.4609 51.7616 17.0831 50.8772 17.4693L49.2694 18.1715L48.4769 17.4276C48.041 17.0185 47.0705 16.202 46.3202 15.613C44.8782 14.4811 44.8247 14.3282 45.789 14.0969C46.5493 13.9146 49.524 13.917 50.9714 14.1011ZM166.426 15.9001C165.483 18.1697 165.636 19.74 166.799 19.74C167.087 19.74 167.436 19.6961 167.573 19.6427C167.978 19.4852 168.275 18.7189 168.275 17.8353C168.275 17.1185 168.211 16.9444 167.773 16.4883C167.494 16.1973 167.199 15.6719 167.109 15.3055L166.947 14.6463L166.426 15.9001ZM167.305 17.6362C167.86 17.9658 167.951 18.081 167.802 18.2632C167.558 18.5616 166.512 18.5503 166.263 18.2464C166.113 18.0632 166.108 17.9155 166.241 17.6195C166.456 17.1406 166.472 17.1408 167.305 17.6362ZM38.6596 18.9537L38.1931 19.8913L39.1165 20.3643C39.6243 20.6243 40.1103 20.8372 40.1965 20.8372C40.2827 20.8372 40.5631 20.4152 40.8197 19.8994L41.2863 18.9619L40.3629 18.4888C39.8551 18.2288 39.369 18.016 39.2828 18.016C39.1966 18.016 38.9162 18.4379 38.6596 18.9537ZM8.70924 19.6477C8.12464 20.9882 8.11568 20.9436 9.06394 21.4153C9.53638 21.6504 9.92306 21.925 9.92306 22.0253C9.92306 22.1258 9.77815 22.54 9.60111 22.9461C9.42406 23.3522 9.30248 23.6983 9.33075 23.7152C9.73211 23.9561 11.3254 24.6374 11.3703 24.5874C11.4972 24.4465 12.2404 22.8787 12.2404 22.7519C12.2404 22.6788 11.8233 22.4165 11.3135 22.1694C10.8037 21.9222 10.3865 21.6953 10.3865 21.6652C10.3865 21.6351 10.5603 21.2624 10.7728 20.8372C10.9852 20.4119 11.159 20.0234 11.159 19.9737C11.159 19.8969 9.22446 18.9564 9.06626 18.9564C9.03567 18.9564 8.875 19.2675 8.70924 19.6477ZM18.4535 20.6116C18.103 20.8607 17.6476 21.6139 17.6476 21.9445C17.6476 22.0644 17.7784 22.0401 18.0284 21.8739C18.4494 21.594 19.2963 21.5429 19.6559 21.7755C19.8508 21.9015 19.8262 21.9691 19.5015 22.1998C18.6816 22.782 17.7627 23.7491 17.4631 24.345C17.0128 25.2405 17.1444 26.2425 17.7892 26.8271C18.4678 27.442 19.8169 27.4498 20.9123 26.8448C21.9283 26.2839 23.1259 24.741 23.6594 23.3057C23.9015 22.6541 23.7468 22.7809 23.0743 23.7857C22.0525 25.3123 20.605 26.14 19.3561 25.9118C17.6984 25.6089 17.501 24.8285 18.7676 23.5854C19.2138 23.1477 19.8568 22.6563 20.1967 22.4937C20.8324 22.1893 22.2823 21.0335 22.2823 20.8312C22.2823 20.6256 20.9291 20.367 19.8537 20.367C19.1469 20.367 18.6839 20.4478 18.4535 20.6116ZM54.3809 22.522C54.2502 22.673 53.9866 23.1123 53.795 23.4986C53.1619 24.775 51.2395 26.4823 48.7069 28.0173C47.9066 28.5024 47.8859 28.5294 48.3911 28.4295C50.6748 27.9778 51.8447 27.2033 53.1198 25.2991C53.9864 24.0049 54.0166 23.9782 54.3612 24.2072C55.3718 24.8791 55.9644 24.0928 55.4283 22.7913C55.1782 22.1841 54.7657 22.078 54.3809 22.522ZM55.1206 23.4182C55.3792 23.6168 55.385 23.6491 55.1627 23.6533C54.7992 23.6604 54.4162 23.4934 54.4162 23.3281C54.4162 23.114 54.7858 23.1613 55.1206 23.4182ZM32.0249 24.7415C30.9654 26.251 30.6042 28.1084 31.2772 28.5864C32.0549 29.1391 32.9487 28.6739 33.1729 27.5998L33.2826 27.0744L32.9579 27.4039C32.5693 27.7981 32.2798 27.8217 32.0019 27.4819C31.7243 27.1426 31.7816 26.2751 32.1539 25.1865C32.3234 24.6909 32.4357 24.2853 32.4035 24.2853C32.3714 24.2853 32.201 24.4906 32.0249 24.7415ZM95.9741 25.9748C95.9741 26.3273 95.9092 26.4851 95.781 26.4449C95.5574 26.3745 95.1284 25.5165 94.9755 24.8338L94.8701 24.3636L95.4221 24.9037C95.8417 25.3144 95.9741 25.5712 95.9741 25.9748ZM64.6926 26.9544C64.7467 27.0431 64.5771 27.363 64.3155 27.6652C63.7748 28.2899 63.6815 29.0314 64.1105 29.2935C64.3504 29.4402 64.2917 29.5436 63.588 30.2146C63.152 30.6304 62.2483 31.2571 61.5796 31.6076C60.4577 32.1958 57.7126 33.219 57.2567 33.219C57.149 33.219 57.0137 33.2962 56.9561 33.3907C56.8816 33.5131 57.2014 33.5323 58.067 33.4573C59.6419 33.321 60.8631 33.0127 61.9319 32.4817C62.8316 32.0347 64.372 30.6062 64.5428 30.0605C64.6185 29.8187 64.7224 29.768 64.975 29.8495C65.8606 30.1353 66.1173 30.1171 66.3701 29.751C66.508 29.5511 66.621 29.2094 66.6208 28.9914C66.6208 28.4548 65.3276 26.793 64.9101 26.793C64.7329 26.793 64.6375 26.8638 64.6926 26.9544ZM92.5387 27.5479C92.4177 27.6931 92.1205 28.1644 91.8784 28.5954C91.0238 30.1169 89.0772 31.8496 86.6366 33.2608L85.855 33.7128L86.5502 33.6166C87.3762 33.5022 88.9449 32.7886 89.7262 32.1715C90.0336 31.9286 90.6371 31.201 91.0673 30.5545C91.4974 29.908 91.8707 29.3525 91.8969 29.3203C91.923 29.2878 92.2109 29.3695 92.5364 29.5016C93.3139 29.8172 93.6567 29.6312 93.6567 28.8933C93.6567 28.2719 93.3147 27.5008 92.9818 27.3711C92.8591 27.3233 92.6598 27.403 92.5387 27.5479ZM8.23464 28.2897C7.58964 29.2593 7.59505 29.7994 8.24391 29.2036C8.42605 29.0364 8.65393 28.9841 8.9127 29.05C9.49142 29.1974 9.39517 29.3626 8.55135 29.6704C8.13669 29.8216 7.63584 30.1201 7.43824 30.3334C6.97199 30.8369 6.98945 31.6863 7.52028 34.2985C7.73718 35.3663 7.92226 36.4595 7.93169 36.7279C7.94605 37.1435 7.96938 37.1114 8.09004 36.5103C8.24638 35.7309 8.17655 34.8787 7.79898 32.9572C7.58578 31.8715 7.5796 31.6374 7.7585 31.4187C8.06949 31.0385 8.65779 30.7692 9.61532 30.5691C10.3749 30.4103 10.5117 30.3185 10.8899 29.7119C11.1228 29.3384 11.3135 28.9856 11.3135 28.9281C11.3135 28.7219 9.40429 27.5766 9.06039 27.5766C8.81583 27.5766 8.56479 27.7935 8.23464 28.2897ZM65.2282 28.252C65.2227 28.6867 64.9718 28.8687 64.6322 28.6844C64.2078 28.454 64.2148 28.2275 64.6512 28.0601C65.0407 27.9108 65.2316 27.9744 65.2282 28.252ZM74.756 28.2242C74.3317 28.4744 73.7598 29.8541 73.5466 31.1415C73.4431 31.7668 73.3142 32.2786 73.2603 32.2786C73.2064 32.2786 72.9966 31.9195 72.7941 31.4806C72.3919 30.6097 71.7111 29.9276 71.2438 29.9276C70.7386 29.9276 70.3287 30.4892 70.3287 31.1814C70.3287 32.254 71.3949 32.8795 71.9218 32.1162C72.1305 31.8142 72.1699 31.8554 72.6645 32.8959C72.9518 33.5003 73.2339 33.9965 73.2915 33.9987C73.3492 34.0009 73.44 33.597 73.4936 33.1014C73.6259 31.8751 74.0561 30.5371 74.3836 30.3331C74.5797 30.211 74.7362 30.2174 74.9562 30.3569C75.2142 30.5202 75.2942 30.4975 75.4973 30.2033C75.9222 29.5881 75.7285 28.0388 75.2284 28.0515C75.1252 28.0542 74.9126 28.1319 74.756 28.2242ZM160.328 28.7543C160.204 29.0573 159.993 29.3472 159.861 29.3988C159.551 29.5195 159.192 29.2156 159.131 28.7798C159.09 28.4874 159.011 28.5449 158.574 29.1831C157.969 30.0672 157.662 30.1157 156.843 29.4574C156.521 29.1988 156.084 28.9872 155.871 28.9872C155.658 28.9872 154.277 29.5952 152.803 30.3381C148.967 32.2718 146.15 33.219 144.235 33.219C143.947 33.219 143.712 33.2873 143.712 33.3708C143.712 33.5876 145.954 33.4052 147.787 33.0393C149.21 32.7552 150.284 32.3713 153.599 30.9619C155.102 30.3229 155.649 30.2722 156.303 30.7112C156.969 31.159 157.513 31.1064 158.159 30.5312L158.713 30.0376L158.946 30.3744C159.453 31.1101 160.456 30.5926 160.629 29.5054C160.681 29.1773 160.755 28.7502 160.795 28.5562C160.906 28.0045 160.58 28.1429 160.328 28.7543ZM93.1933 28.5954C93.4557 28.9162 93.0598 28.9198 92.6434 28.6004C92.3494 28.3747 92.3501 28.3701 92.6723 28.3653C92.8531 28.3625 93.0874 28.4661 93.1933 28.5954ZM65.9258 28.8305C66.1983 29.1359 66.1956 29.1439 65.821 29.1439C65.3586 29.1439 65.2237 29.0309 65.335 28.7367C65.4482 28.4372 65.5958 28.4606 65.9258 28.8305ZM171.613 29.9467C171.225 30.8553 171.218 30.9172 171.477 31.1119C171.894 31.4244 173.209 32.0281 173.291 31.9447C173.331 31.9043 173.537 31.4736 173.748 30.9877L174.134 30.1042L173.149 29.5456C172.608 29.2386 172.133 28.9872 172.094 28.9872C172.055 28.9872 171.839 29.419 171.613 29.9467ZM42.3476 29.9668C41.2768 31.4411 40.8752 33.0216 41.4034 33.6833C41.6351 33.9736 41.8482 34.0619 42.2874 34.0492C43.0081 34.0285 43.2803 33.7617 43.3855 32.973C43.4511 32.4804 43.4331 32.4119 43.2954 32.6312C43.0776 32.9779 42.2789 32.9962 42.1508 32.6575C41.9588 32.1497 42.078 31.3864 42.5103 30.3586C42.755 29.7767 42.9273 29.3007 42.8933 29.3007C42.8593 29.3007 42.6137 29.6003 42.3476 29.9668Z" fill="#040813"/>
</svg>
