<svg width="375" height="35" viewBox="0 0 375 35" fill="none" xmlns="http://www.w3.org/2000/svg">
<path fill-rule="evenodd" clip-rule="evenodd" d="M0.144224 0.11117C-0.0036476 0.596766 -0.0599538 29.0282 0.0820422 31.4298L0.263208 34.495L49.7978 34.3797L99.3319 34.264V17.2454V0.226914L49.7557 0.11117C22.489 0.0476346 0.16381 0.0476346 0.144224 0.11117ZM101.046 17.2454V34.4909H187.467H273.889V17.2454V0H187.467H101.046V17.2454ZM275.592 0.564998C275.467 0.878139 275.418 8.58869 275.484 17.6993L275.603 34.264H325.301H375V17.2454V0.226914L325.409 0.11117C285.992 0.0194973 275.772 0.112532 275.592 0.564998ZM8.99302 1.43999C9.66628 1.42865 12.0352 1.27797 14.2567 1.10506L18.2962 0.791016V2.81554C18.2962 4.62358 18.0915 4.99255 16.3856 6.26327C14.0564 7.99825 10.2955 13.151 9.46357 15.7469C8.96805 17.2945 8.9754 17.9339 9.5047 19.1506C10.6867 21.8709 13.8757 26.1949 16.1036 28.0983C18.0166 29.7325 18.2962 30.209 18.2962 31.8355V33.6999L13.0301 33.3835C9.70888 33.1843 7.26753 33.2424 6.41996 33.541C3.18931 34.6792 0.798387 31.7906 1.38253 27.4547C1.78403 24.4772 3.18637 22.3542 5.28938 21.5395C6.70689 20.9909 7.0232 20.5802 7.44723 18.7372C7.72045 17.55 7.77333 16.4731 7.56474 16.3446C7.35615 16.2162 7.0374 15.5504 6.85623 14.8656C6.6354 14.0278 5.9925 13.4133 4.89228 12.9872C1.77228 11.7787 0.277896 6.91724 1.91232 3.29161C2.89356 1.1146 3.45175 0.810068 5.81036 1.16587C6.88757 1.32788 8.31977 1.45179 8.99302 1.43999ZM67.1742 2.47291C70.3015 4.07855 70.9983 4.96533 73.0773 9.98421C73.9567 12.1059 75.0246 14.1994 75.4506 14.6359C77.3827 16.6155 81.3082 14.5348 79.9803 12.2352C79.6062 11.5871 79.5763 11.0947 79.8931 10.8011C80.5884 10.1566 82.2566 11.0988 83.0263 12.571C83.4224 13.3289 84.2534 13.9302 85.2238 14.1617C86.963 14.576 88.8046 16.4453 88.8046 17.7955C88.8046 19.0576 86.1772 21.3299 84.718 21.3299C83.7598 21.3299 83.3749 21.6657 82.9431 22.8783C82.4045 24.391 81.6411 24.9605 80.1526 24.9605C79.5626 24.9605 79.4818 24.5947 79.7491 23.1293C80.132 21.029 79.4794 19.9684 77.8038 19.9684C76.3481 19.9684 75.6469 20.7953 72.832 25.8273C70.8876 29.3036 70.0444 30.3343 68.2994 31.3672C64.8459 33.4122 62.3958 33.6726 48.1643 33.507C35.844 33.364 35.0654 33.3037 32.7465 32.313C29.2177 30.8054 28.4137 29.9186 26.3606 25.2709C25.3485 22.9787 24.1871 20.7454 23.7807 20.3088C22.6692 19.1157 20.4345 19.2922 19.4753 20.6492C18.732 21.7007 18.7325 21.8672 19.4811 22.9265C20.2019 23.9457 20.2073 24.0982 19.5335 24.3379C18.4646 24.7182 16.4101 23.3431 16.0473 22.0047C15.8392 21.2364 15.4029 20.8761 14.6797 20.8761C13.2456 20.8761 11.5925 19.7406 10.7014 18.1431C9.98846 16.8661 10.0183 16.7794 11.6998 15.2209C12.7207 14.2747 13.9149 13.6148 14.6073 13.6148C15.3995 13.6148 15.8911 13.2826 16.1178 12.5937C16.5972 11.1351 17.81 9.98421 18.8676 9.98421C19.654 9.98421 19.7343 10.2293 19.464 11.7972C19.1046 13.8803 19.7935 14.9763 21.4627 14.9763C22.9801 14.9763 23.7596 14.021 26.2788 9.07655C28.5943 4.53147 29.2436 3.78266 32.0062 2.47473C34.9709 1.07104 36.3233 0.967567 50.6125 1.05198L64.5673 1.13457L67.1742 2.47291ZM90.0287 1.46131C90.5673 1.47311 92.0587 1.32516 93.3426 1.13228C96.2177 0.700693 97.389 1.4831 97.8771 4.16114C98.6219 8.24831 96.4332 12.8633 93.5688 13.2459C92.1645 13.4333 91.4672 16.4277 92.2218 19.0263C92.636 20.4508 93.1335 21.0145 94.5123 21.6208C99.9968 24.0333 98.7957 35.4444 93.2608 33.5106C92.615 33.2851 89.5851 33.2392 86.5282 33.4085L80.9703 33.7167V31.9445C80.9703 30.3964 81.3096 29.8637 83.6565 27.7302C86.5576 25.0935 88.2053 22.7731 89.7398 19.1647L90.7161 16.8688L88.9035 13.54C87.7959 11.5055 85.901 9.07068 84.0306 7.27851C81.3322 4.6926 80.9703 4.13483 80.9703 2.56186V0.777853L85.0099 1.10914C87.2314 1.29112 89.4901 1.44951 90.0287 1.46131ZM111.083 1.38008C112.16 1.30384 114.474 1.21761 116.224 1.18812L119.407 1.13457L119.547 2.72297C119.672 4.13755 119.364 4.60456 116.733 6.98897C113.7 9.7369 112.062 12.031 110.603 15.5695L109.772 17.5876L111.279 20.4027C113.318 24.2126 114.494 25.7293 117.283 28.1537C119.32 29.924 119.652 30.4573 119.652 31.9594V33.7067L114.14 33.3922C111.04 33.2152 108.094 33.2601 107.409 33.4948C105.754 34.0625 103.761 33.3536 103.072 31.9508C102.457 30.7005 102.343 27.683 102.826 25.4439C103.193 23.7461 105.614 21.3299 106.95 21.3299C108.377 21.3299 108.917 18.5193 108.137 15.1538C107.908 14.168 107.354 13.5522 106.299 13.1115C103.603 11.9856 102.759 10.3777 102.759 6.36811C102.759 3.4568 102.935 2.6381 103.737 1.81667C104.591 0.942144 104.996 0.859554 106.92 1.1668C108.133 1.36013 110.006 1.45633 111.083 1.38008ZM241.194 2.41074C244.506 3.91836 245.278 4.86186 247.391 9.98421C249.078 14.0746 250.26 15.4301 252.143 15.4301C253.784 15.4301 255.186 13.3947 254.374 12.1903C253.728 11.23 254.002 10.438 254.982 10.438C255.712 10.438 257.455 12.1399 257.888 13.2745C258.061 13.7319 258.687 14.0687 259.362 14.0687C260.66 14.0687 262.902 15.903 263.407 17.377C263.654 18.0991 263.31 18.6827 261.962 19.8273C260.989 20.6537 259.738 21.3299 259.182 21.3299C258.496 21.3299 258.003 21.7719 257.654 22.7009C257.125 24.1064 255.955 24.9605 254.558 24.9605C253.926 24.9605 253.831 24.6537 254.083 23.4116C254.523 21.2359 253.986 19.9684 252.623 19.9684C250.989 19.9684 249.45 21.6435 246.959 26.1337C244.464 30.6297 242.376 32.2549 237.96 33.138C236.194 33.4911 220.742 33.5978 185.754 33.4979C138.326 33.3627 135.977 33.3178 134.341 32.5086C130.467 30.5921 129.631 29.6721 127.49 24.9687C126.344 22.4531 125.008 20.1967 124.52 19.9548C123.126 19.2627 121.84 19.4347 120.854 20.4449C120.092 21.226 120.033 21.5904 120.49 22.7123C121.527 25.2582 118.55 24.9778 117.397 22.4209C116.879 21.2695 116.4 20.8761 115.521 20.8761C114.132 20.8761 111.328 18.4558 111.328 17.2577C111.328 16.2121 114.477 13.6148 115.745 13.6148C116.373 13.6148 116.944 13.0748 117.41 12.0428C117.878 11.0044 118.553 10.369 119.398 10.1725C121.054 9.78768 121.342 10.1045 120.755 11.6652C120.078 13.4646 120.788 14.9763 122.31 14.9763C123.993 14.9763 125.162 13.6648 127.537 9.1174C128.656 6.97352 129.929 4.84007 130.365 4.37671C131.313 3.37012 134.5 1.79851 136.545 1.32926C137.353 1.14364 160.598 1.02429 188.202 1.06332L238.39 1.13457L241.194 2.41074ZM264.341 1.45405C264.88 1.46177 266.463 1.31476 267.859 1.12823C270.368 0.792403 270.41 0.806446 271.407 2.32268C272.73 4.33405 272.742 7.71914 271.436 10.2206C270.533 11.9502 269.575 12.6954 267.471 13.308C266.412 13.6162 265.897 16.8329 266.548 19.0739C266.941 20.4236 267.463 21.0222 268.741 21.584C271.905 22.9755 273.49 28.5331 271.66 31.8138C270.675 33.5801 269.29 34.0243 266.817 33.3686C265.724 33.079 264.17 32.9847 263.362 33.1589C262.554 33.3332 260.405 33.5002 258.588 33.5297L255.283 33.5832V31.9368C255.283 30.5299 255.756 29.8251 258.525 27.1044C260.521 25.143 262.289 22.8543 263.127 21.1493C264.643 18.0601 265.365 15.6643 264.658 16.0696C264.406 16.2139 264.072 15.8563 263.915 15.2758C263.337 13.1433 260.886 9.68922 258.121 7.11148C255.597 4.75884 255.283 4.26142 255.283 2.62174V0.777853L259.322 1.10914C261.544 1.29112 263.802 1.44634 264.341 1.45405ZM284.661 1.45724C285.334 1.43636 287.703 1.27797 289.925 1.10506L293.964 0.791016V2.56594C293.964 4.12348 293.63 4.64173 291.234 6.80059C288.282 9.46002 286.56 11.8826 285.112 15.4156L284.19 17.6652L286.193 21.3376C287.542 23.8092 289.139 25.8645 291.081 27.6249C293.566 29.8795 293.964 30.4709 293.964 31.9118V33.5832L291.149 33.5724C289.6 33.5665 287.552 33.3931 286.597 33.1871C285.496 32.9497 283.983 33.0191 282.466 33.3763C278.377 34.3384 276.827 32.9497 276.827 28.3248C276.827 24.892 278.163 22.567 280.669 21.6376C282.421 20.9877 282.615 20.7472 282.825 18.9709C283.17 16.056 282.293 13.8141 280.525 13.0875C279.712 12.7535 278.548 11.7864 277.937 10.9381C276.433 8.84918 276.384 4.5369 277.838 2.32494C278.822 0.829124 278.902 0.800559 281.142 1.14365C282.404 1.33744 283.988 1.47857 284.661 1.45724ZM340.329 1.58883C344.257 2.66985 346.371 4.8673 348.548 10.1326C350.517 14.8946 351.482 15.8168 353.902 15.2541C355.361 14.9141 356.006 13.2477 355.21 11.8694C354.891 11.3171 354.86 10.8424 355.131 10.6867C355.981 10.2002 358.057 11.466 358.547 12.7698C358.891 13.6838 359.37 14.0727 360.163 14.0832C362.399 14.1118 364.906 17.0085 364.021 18.5411C363.294 19.7996 361.091 21.3299 360.007 21.3299C359.438 21.3299 358.84 21.9063 358.404 22.8747C357.761 24.3007 355.97 25.3994 355.3 24.7785C355.143 24.6329 354.994 23.5423 354.969 22.3546C354.929 20.3945 354.81 20.1831 353.684 20.0614C352.045 19.884 350.896 21.1012 348.283 25.7838C346.094 29.7076 344.531 31.2746 341.523 32.5621C338.855 33.704 313.819 33.984 309.857 32.9166C305.831 31.8319 303.774 29.8664 301.76 25.1834C299.9 20.8557 298.842 19.5146 297.289 19.5146C295.127 19.5146 293.583 22.1568 294.986 23.457C295.37 23.8123 295.368 24.0365 294.982 24.258C293.966 24.8393 292.405 23.9626 291.71 22.4209C291.216 21.3267 290.694 20.872 289.918 20.8615C287.711 20.8325 285.214 17.9235 286.092 16.4036C286.81 15.161 289.017 13.6148 290.073 13.6148C290.596 13.6148 291.306 12.9323 291.843 11.913C292.508 10.6522 293.089 10.1739 294.087 10.0677C295.517 9.91478 295.754 10.3954 294.944 11.7995C294.191 13.1029 295.144 14.9763 296.56 14.9763C298.198 14.9763 299.515 13.4746 301.744 9.06839C304.217 4.17886 306.404 2.21558 310.367 1.32926C311.175 1.14863 317.69 0.979808 324.845 0.95394C335.101 0.917634 338.378 1.05195 340.329 1.58883ZM363.231 1.3465C364.472 1.61289 366.029 1.59384 367.543 1.29295C370.715 0.662131 372.044 1.03929 372.827 2.79106C374.415 6.34544 372.933 11.3974 369.887 12.8061C368.96 13.235 368.051 13.8476 367.869 14.1676C367.203 15.3321 366.893 18.0837 367.395 18.3714C367.673 18.5302 367.901 19.108 367.902 19.6548C367.903 20.3392 368.475 20.9323 369.738 21.5568C372.324 22.8362 373.93 25.821 373.587 28.7137C373.3 31.1299 372.024 33.4707 370.865 33.7044C370.446 33.7893 369.112 33.6327 367.9 33.3573C366.688 33.0818 365.036 32.9955 364.228 33.1662C363.42 33.3364 361.382 33.5002 359.699 33.5297L356.638 33.5832V31.6168C356.638 29.8782 356.859 29.4865 358.543 28.2322C360.927 26.4563 364.137 22.0474 365.195 19.0952L366 16.8493L364.466 13.9838C362.645 10.5801 359.72 6.95809 357.645 5.53625C356.502 4.75294 356.149 4.15754 356.149 3.01208C356.149 2.18747 356.296 1.37646 356.475 1.21036C356.943 0.776048 360.954 0.856817 363.231 1.3465ZM3.43804 3.55301C2.90189 4.10168 2.62769 5.18409 2.62769 6.75025C2.62769 9.59439 4.10102 11.3457 6.49438 11.3457C7.86538 11.3457 7.96673 11.4669 8.10824 13.2745L8.25856 15.2032L9.61487 12.5193C11.0001 9.77771 16.0027 3.63062 16.8483 3.63062C17.1059 3.63062 17.3169 3.4264 17.3169 3.17679C17.3169 2.31951 14.3566 2.72387 12.5326 3.82985C11.5284 4.43889 10.0849 5.07741 9.32451 5.24896C8.5641 5.4205 7.75815 5.99463 7.53291 6.5247C7.30817 7.05477 6.66331 7.8435 6.09973 8.27781C5.53665 8.71212 5.07589 9.38789 5.07589 9.77954C5.07589 10.1712 4.85556 10.3654 4.58625 10.2111C3.80087 9.76138 4.01631 8.19023 5.15277 6.08175C6.02433 4.4634 6.09924 4.00003 5.58218 3.42231C4.77427 2.5201 4.42565 2.54142 3.43804 3.55301ZM81.9496 2.98347C81.9496 3.12642 83.1345 4.24736 84.5834 5.47451C86.2976 6.92676 87.9159 8.93498 89.2198 11.2273C90.7049 13.839 91.2283 14.4562 91.2449 13.6148C91.2753 12.0963 91.739 11.5417 93.2672 11.1955C94.3111 10.959 94.5045 10.6985 94.316 9.78408C94.1887 9.16733 93.5737 8.35268 92.9494 7.97328C92.3246 7.59388 91.7424 6.82285 91.6558 6.25919C91.5382 5.49722 91.1372 5.20995 90.0899 5.13643C89.3158 5.08242 87.8331 4.51693 86.7956 3.88021C85.1342 2.86137 81.9496 2.27186 81.9496 2.98347ZM94.0276 3.02567C93.4243 3.58433 93.6936 5.78313 94.4354 6.35359C94.8693 6.68715 95.1699 7.67828 95.1699 8.77564C95.1699 10.5442 95.2106 10.5946 96.0268 9.83852C97.2421 8.71212 97.1956 4.95307 95.9509 3.67827C94.9662 2.66941 94.5598 2.53191 94.0276 3.02567ZM104.275 3.70688C103.298 4.99892 103.267 7.80764 104.21 9.49769C104.978 10.8746 105.851 11.3457 107.633 11.3457C108.567 11.3457 108.808 11.6561 109.074 13.1991L109.394 15.0526L111.139 11.8199C112.098 10.0423 114.076 7.39422 115.533 5.93517C116.991 4.47611 118.183 3.15638 118.183 3.00253C118.183 2.25871 115.005 2.84642 113.58 3.85392C112.701 4.47566 111.301 5.11053 110.47 5.26438C109.433 5.4568 108.87 5.87571 108.674 6.59956C108.517 7.18001 107.962 7.77997 107.441 7.93336C106.92 8.0863 106.425 8.61861 106.34 9.11601C106.256 9.6134 105.966 9.96105 105.697 9.88889C104.994 9.69964 105.417 6.77564 106.261 5.99279C107.185 5.13642 106.92 3.00024 105.866 2.81554C105.421 2.73702 104.705 3.13823 104.275 3.70688ZM256.262 2.98347C256.262 3.12642 257.448 4.24827 258.897 5.47587C260.741 7.03749 262.12 8.80019 263.487 11.3407L265.44 14.9731L265.743 13.2168C265.999 11.7373 266.269 11.4197 267.457 11.1991C268.661 10.9763 268.831 10.7675 268.625 9.76727C268.492 9.12329 267.977 8.33273 267.481 8.01051C266.984 7.6883 266.388 6.94947 266.157 6.36857C265.878 5.66922 265.274 5.26711 264.369 5.17771C263.618 5.10328 262.152 4.52059 261.112 3.88296C259.447 2.86185 256.262 2.27096 256.262 2.98347ZM268.35 3.01612C267.739 3.58296 268 5.77859 268.748 6.35359C269.173 6.6808 269.482 7.67061 269.482 8.70488C269.482 10.8715 270.215 10.625 271.001 8.19433C271.484 6.69851 271.432 6.19019 270.647 4.7207C269.723 2.99116 268.975 2.43659 268.35 3.01612ZM279.122 3.28571C278.146 3.94648 277.542 6.67627 277.997 8.35861C278.433 9.97015 280.192 11.3457 281.816 11.3457C282.945 11.3457 283.192 11.5427 283.192 12.4431C283.192 15.0707 283.793 14.8919 285.483 11.7614C286.425 10.016 288.388 7.39422 289.845 5.93517C291.303 4.47611 292.495 3.15638 292.495 3.00253C292.495 2.25871 289.318 2.84642 287.893 3.85392C287.013 4.47566 285.637 5.10646 284.834 5.25486C283.808 5.44501 283.215 5.91838 282.836 6.84736C282.54 7.5744 281.949 8.1689 281.521 8.1689C281.019 8.1689 280.744 8.57008 280.744 9.30347C280.744 9.92748 280.524 10.438 280.254 10.438C279.324 10.438 279.542 7.544 280.583 6.07087C281.366 4.96353 281.307 3.1178 280.48 2.86593C280.199 2.78061 279.588 2.96939 279.122 3.28571ZM357.618 2.96984C357.618 3.10553 358.789 4.27959 360.221 5.57935C361.8 7.01254 363.514 9.22451 364.578 11.2023C366.373 14.5366 366.921 14.8779 366.921 12.6618C366.921 11.6294 367.16 11.3806 368.267 11.2622C369.423 11.1392 369.591 10.94 369.454 9.85712C369.367 9.16322 368.761 8.10039 368.108 7.49498C367.455 6.89003 366.921 6.07042 366.921 5.67377C366.921 5.27713 366.646 4.98531 366.309 5.02615C364.915 5.19362 364.027 4.93401 362.316 3.85753C360.74 2.86638 357.618 2.27639 357.618 2.96984ZM369.329 3.4482C368.808 4.03046 368.842 4.40621 369.522 5.59433C369.976 6.38626 370.403 7.79946 370.47 8.73525C370.62 10.812 371.417 10.7122 372.008 8.54332C372.904 5.25216 370.984 1.59976 369.329 3.4482ZM8.01374 21.196C8.01374 23.0104 7.93099 23.1184 6.33231 23.3966C4.72972 23.6753 4.67733 23.7447 5.20271 24.892C5.5058 25.5537 6.12911 26.4014 6.58692 26.7758C7.04523 27.1502 7.56817 27.9163 7.74982 28.4777C7.95988 29.1285 8.46715 29.5006 9.14824 29.5043C9.7363 29.5074 11.1758 30.018 12.348 30.6388C14.2547 31.6491 17.3169 32.1845 17.3169 31.5074C17.3169 31.3645 16.131 30.2426 14.6817 29.015C12.8147 27.4334 11.4584 25.6898 10.0301 23.0349L8.01423 19.2877L8.01374 21.196ZM89.35 22.7699C88.3771 24.6456 86.4974 27.1507 84.8022 28.8303C83.2129 30.4051 82.0862 31.7874 82.2982 31.9027C83.0978 32.3375 85.3702 31.8002 86.7598 30.8476C87.5531 30.3039 88.9436 29.7198 89.85 29.5487C91.0246 29.3272 91.5412 28.9597 91.6494 28.2685C91.7326 27.7352 92.3383 26.9719 92.9959 26.573C93.653 26.1736 94.1906 25.4316 94.1906 24.9233C94.1906 24.3628 94.4041 24.1214 94.7332 24.3102C95.3609 24.6696 94.9231 28.0003 94.1314 28.8839C93.395 29.7062 93.8097 31.5079 94.7743 31.6781C96.0307 31.9 97.293 29.2905 96.9791 27.1207C96.6589 24.9106 95.518 23.7007 93.4077 23.3335C91.9965 23.0885 91.7287 22.8194 91.3938 21.3118L91.008 19.5722L89.35 22.7699ZM263.675 22.6228C262.769 24.3515 260.714 27.1162 259.106 28.7668C257.499 30.4174 256.367 31.7902 256.59 31.8169C258.4 32.0352 259.715 31.7257 261.349 30.6974C262.397 30.0384 263.785 29.4988 264.435 29.4988C265.304 29.4988 265.75 29.1434 266.121 28.1559C266.399 27.4171 267.049 26.6887 267.565 26.5367C268.159 26.362 268.503 25.846 268.503 25.1303C268.503 24.4917 268.716 24.1214 268.993 24.2798C269.722 24.6978 269.585 26.6651 268.706 28.3815C267.743 30.2635 267.959 31.541 269.242 31.541C269.94 31.541 270.392 31.0336 270.851 29.7339C271.938 26.6587 270.584 23.8319 267.791 23.3463C266.288 23.0849 266.047 22.8443 265.706 21.2654L265.32 19.4805L263.675 22.6228ZM365.53 21.2659C364.844 23.3898 360.483 29.2247 358.833 30.2267C358.165 30.6325 357.618 31.2424 357.618 31.5819C357.618 32.4637 360.318 31.8905 362.435 30.5585C363.361 29.9758 364.75 29.4988 365.521 29.4988C366.457 29.4988 366.921 29.2664 366.921 28.7976C366.921 28.4119 367.454 27.6018 368.106 26.9978C368.758 26.3937 369.364 25.5755 369.452 25.1793C369.541 24.7831 369.834 24.5208 370.104 24.5961C370.775 24.7844 370.401 27.6871 369.563 28.7967C368.643 30.013 368.7 31.2787 369.69 31.6309C370.987 32.0924 372.307 30.1727 372.307 27.8251C372.307 26.1899 372.03 25.5419 370.876 24.4717C370.035 23.6921 368.925 23.1452 368.183 23.1452C367.071 23.1452 366.921 22.9592 366.921 21.5836C366.921 19.3898 366.191 19.2228 365.53 21.2659ZM109.091 21.5645C108.823 22.8879 108.501 23.2382 107.358 23.4502C106.127 23.678 105.993 23.8573 106.275 24.8975C106.452 25.5505 107.11 26.4591 107.738 26.917C108.366 27.3749 108.88 28.1428 108.88 28.6243C108.88 29.2841 109.224 29.4988 110.28 29.4988C111.051 29.4988 112.493 30.0093 113.485 30.6334C114.554 31.3059 115.983 31.7679 116.993 31.7679H118.698L115.834 29.1584C113.992 27.4802 112.337 25.3694 111.195 23.2441L109.42 19.9394L109.091 21.5645ZM283.481 20.7068C283.322 21.0903 283.192 21.7797 283.192 22.2385C283.192 22.7967 282.706 23.172 281.724 23.3721C280.427 23.6362 280.292 23.8123 280.567 24.8829C280.992 26.5339 281.177 26.7758 282.009 26.7758C282.415 26.7758 282.855 27.3676 283.021 28.1373C283.261 29.2519 283.557 29.4988 284.654 29.4988C285.391 29.4988 286.805 30.0093 287.797 30.6334C288.86 31.3023 290.296 31.7679 291.293 31.7679H292.985L290.115 29.1076C288.348 27.4697 286.577 25.2106 285.507 23.2283C284.356 21.0953 283.672 20.2444 283.481 20.7068ZM104.288 25.0831C102.608 27.3794 104.029 32.3711 106.149 31.6173C107.117 31.2728 107.158 29.3382 106.212 28.6107C105.822 28.3107 105.436 27.1112 105.355 25.9453L105.208 23.8259L104.288 25.0831ZM278.663 24.9483C278.192 25.565 277.806 26.7495 277.806 27.58C277.806 29.423 279.042 31.7679 280.013 31.7679C281.091 31.7679 281.496 29.6113 280.591 28.6855C280.174 28.2585 279.762 26.99 279.677 25.8672L279.52 23.8259L278.663 24.9483ZM2.9249 25.2246C2.76136 25.6195 2.62769 26.9152 2.62769 28.1042C2.62769 29.7003 2.88769 30.484 3.62215 31.0999C4.48734 31.8256 4.70817 31.8492 5.3212 31.281C6.03314 30.6216 5.827 28.5911 5.04896 28.5911C4.82716 28.5911 4.49763 27.6721 4.31597 26.5489C3.97714 24.455 3.45077 23.9539 2.9249 25.2246Z" fill="#5E2A2B"/>
</svg>
