<svg width="11" height="24" viewBox="0 0 11 24" fill="none" xmlns="http://www.w3.org/2000/svg">
<path fill-rule="evenodd" clip-rule="evenodd" d="M10.1785 0.0573122C10.0208 0.146128 9.9611 0.258708 9.9611 0.466931C9.9611 0.693456 10.0239 0.792059 10.2373 0.900997L10.4194 0.99391L10.3389 1.14013C10.2946 1.22057 9.97175 1.56291 9.62145 1.90092C7.74712 3.70951 7.37228 4.14135 7.07733 4.83203C6.96116 5.10408 6.93635 5.22858 6.92219 5.61107C6.90603 6.04759 6.94022 6.25796 7.11635 6.80606C7.16933 6.97099 7.06067 6.92701 6.97641 6.74943C6.86679 6.51844 6.57029 6.23133 6.32633 6.11998C6.17579 6.05128 6.02174 6.02287 5.79476 6.02201C5.17687 6.01964 4.69018 6.37695 4.05854 7.2968C3.90431 7.52137 3.73241 7.75349 3.67656 7.81258C3.54331 7.95347 3.28296 8.05991 3.15199 8.02704C3.07296 8.00719 3.04041 8.02403 3.01738 8.0966C2.97276 8.23708 3.05407 8.28903 3.34815 8.30783C3.60039 8.32399 3.6309 8.31306 4.13411 8.0264C4.76839 7.66508 5.02068 7.58619 5.53869 7.58701C6.64468 7.58874 7.42668 8.23954 7.5952 9.29846C7.70869 10.0116 7.49483 10.6713 6.94695 11.2981C6.83619 11.4248 6.76805 11.4681 6.71274 11.4469C6.63981 11.4189 6.63958 11.4075 6.70964 11.272C6.80542 11.0868 6.77601 10.7265 6.65146 10.5584C6.53274 10.3981 6.31823 10.2551 6.05483 10.1606C5.40435 9.92723 5.07071 9.67125 4.92713 9.29527C4.8674 9.1389 4.85538 9.00679 4.87441 8.71754C4.88802 8.51123 4.91283 8.30846 4.92963 8.2669C4.9513 8.21327 4.92995 8.18177 4.85597 8.15833C4.76962 8.13088 4.71763 8.16302 4.5516 8.34643C4.28188 8.64434 4.01393 9.04531 3.87508 9.35878C3.73801 9.66829 3.58783 10.234 3.58783 10.4407V10.5897L3.35812 10.4351C3.08757 10.2531 2.90398 10.2109 2.52982 10.2448C1.96693 10.2958 1.47036 10.6403 0.72819 11.4945C0.570725 11.6757 0.345658 11.889 0.228071 11.9685C0.110484 12.0479 0.00869385 12.1169 0.00191087 12.1217C-0.00491763 12.1265 0.00714594 12.1781 0.0286785 12.2364C0.0645964 12.3334 0.0912273 12.3412 0.349072 12.3307C0.705929 12.3162 0.842499 12.396 1.20341 12.8297C1.68168 13.4044 2.07527 13.6496 2.57129 13.6818C2.98196 13.7084 3.1707 13.6733 3.38043 13.5309C3.4717 13.469 3.55569 13.4183 3.56707 13.4183C3.5785 13.4183 3.58819 13.4747 3.5886 13.5435C3.59197 14.0709 3.98566 14.982 4.45414 15.5465C4.72573 15.8738 4.78309 15.9111 4.9005 15.8367C4.94843 15.8063 4.95089 15.7607 4.91215 15.6211C4.83153 15.3308 4.85252 14.8787 4.95736 14.6475C5.12588 14.2757 5.36306 14.0923 5.95445 13.8765C6.15485 13.8034 6.38274 13.698 6.46085 13.6423C6.72981 13.4508 6.85049 12.9961 6.70591 12.7189C6.62028 12.5547 6.62041 12.5534 6.72366 12.5534C6.90717 12.5534 7.35129 13.1634 7.49888 13.6182C7.63067 14.0244 7.65302 14.2656 7.59653 14.6721C7.4753 15.5446 6.92519 16.1552 6.0811 16.3542C5.36811 16.5223 4.88424 16.4202 4.05549 15.9268C3.66558 15.6946 3.44776 15.6353 3.21418 15.6975C3.02407 15.7482 2.98328 15.7905 3.02352 15.8952C3.04205 15.9436 3.10792 15.9676 3.22178 15.9676C3.48345 15.9676 3.66777 16.1262 4.04306 16.6743C4.44922 17.2674 4.85037 17.6845 5.16025 17.8361C5.48829 17.9965 5.99369 18.0153 6.31072 17.8789C6.56437 17.7698 6.86592 17.4765 6.98829 17.22C7.07273 17.0428 7.16633 17.0019 7.1193 17.1626C6.93521 17.7918 6.90175 18.0036 6.91896 18.4317C6.93639 18.8657 6.94381 18.8922 7.17512 19.3465C7.48172 19.9486 7.90549 20.4703 8.65403 21.1674C9.7257 22.1653 10.2168 22.6583 10.3174 22.8373L10.416 23.0128L10.2781 23.07C9.96611 23.1992 9.84547 23.6279 10.0635 23.8322C10.4278 24.1734 10.962 23.9635 10.9624 23.479C10.9626 23.246 10.7435 22.8202 10.2871 22.1668C9.77682 21.4361 9.6052 21.1473 9.30224 20.5096C8.88042 19.6217 8.59335 18.6407 8.43265 17.5382C8.39614 17.2878 8.34661 16.5459 8.32262 15.8896C8.26485 14.3091 8.17071 13.7468 7.86152 13.1343C7.61 12.636 7.02926 12.165 6.54758 12.0687C6.47205 12.0536 6.41028 12.027 6.41028 12.0097C6.41028 11.9924 6.52149 11.9431 6.65742 11.9003C7.1981 11.7299 7.64055 11.3264 7.911 10.7573C8.18501 10.1805 8.26353 9.67194 8.32208 8.09469C8.422 5.40357 8.86362 3.96522 10.2098 1.94644C10.9081 0.899312 10.9338 0.849054 10.9372 0.524974C10.9394 0.302228 10.9224 0.246917 10.82 0.144398C10.6712 -0.00455395 10.3627 -0.0464355 10.1785 0.0573122ZM3.96194 11.2693C4.03346 11.3903 4.41003 11.756 4.64079 11.9284C4.74449 12.0059 4.74535 12.0112 4.66291 12.065C4.38472 12.2465 4.12942 12.481 4.01484 12.6603C3.9034 12.8348 3.86666 12.8618 3.76992 12.8402C3.55779 12.7931 3.1285 12.5389 3.03204 12.4034C2.88627 12.1988 2.87025 11.8692 2.99612 11.6655C3.10906 11.4828 3.35502 11.3023 3.61983 11.2078C3.85942 11.1224 3.87704 11.1255 3.96194 11.2693Z" fill="#856F51"/>
</svg>
