<svg width="32" height="31" viewBox="0 0 32 31" fill="none" xmlns="http://www.w3.org/2000/svg">
<path d="M12.7166 1.85905C14.5988 0.220136 17.4012 0.220134 19.2834 1.85904L20.7341 3.12222C21.4109 3.71154 22.2339 4.10785 23.1166 4.26956L25.0087 4.61617C27.4635 5.06587 29.2109 7.25695 29.103 9.75035L29.0199 11.6721C28.9812 12.5687 29.1844 13.4592 29.6083 14.2502L30.517 15.9455C31.696 18.1452 31.0724 20.8775 29.0558 22.3478L27.5015 23.481C26.7763 24.0097 26.2068 24.7238 25.8527 25.5484L25.0938 27.3159C24.1091 29.6092 21.5841 30.8251 19.1773 30.1652L17.3222 29.6565C16.4567 29.4192 15.5433 29.4192 14.6778 29.6565L12.8227 30.1652C10.4159 30.8251 7.89089 29.6092 6.9062 27.3159L6.14725 25.5484C5.79317 24.7238 5.22368 24.0097 4.49853 23.481L2.94422 22.3478C0.927577 20.8775 0.303961 18.1452 1.48295 15.9455L2.39165 14.2502C2.8156 13.4592 3.01885 12.5687 2.98008 11.6721L2.89697 9.75035C2.78914 7.25696 4.53647 5.06587 6.99134 4.61617L8.88341 4.26956C9.76614 4.10785 10.5891 3.71154 11.2659 3.12222L12.7166 1.85905Z" fill="currentColor"/>
</svg>
